<svg xmlns="http://www.w3.org/2000/svg" viewBox="0 0 100 100">
  <defs>
    <linearGradient id="steel" x1="0%" y1="0%" x2="0%" y2="100%">
      <stop offset="0%" stop-color="#f4f6fa"/>
      <stop offset="35%" stop-color="#c8cfdb"/>
      <stop offset="70%" stop-color="#7d8696"/>
      <stop offset="100%" stop-color="#3a4150"/>
    </linearGradient>
    <linearGradient id="plate" x1="0%" y1="0%" x2="0%" y2="100%">
      <stop offset="0%" stop-color="#1a1f2a"/>
      <stop offset="100%" stop-color="#06080b"/>
    </linearGradient>
    <radialGradient id="dome" cx="40%" cy="35%" r="65%">
      <stop offset="0%" stop-color="#f4f6fa"/>
      <stop offset="55%" stop-color="#9aa3b3"/>
      <stop offset="100%" stop-color="#3a4150"/>
    </radialGradient>
    <linearGradient id="veil" x1="0%" y1="0%" x2="0%" y2="100%">
      <stop offset="0%" stop-color="#a8b1c0"/>
      <stop offset="55%" stop-color="#5a6272"/>
      <stop offset="100%" stop-color="#2a2f3a"/>
    </linearGradient>
    <linearGradient id="visor" x1="0%" y1="0%" x2="0%" y2="100%">
      <stop offset="0%" stop-color="#ff8a4a"/>
      <stop offset="50%" stop-color="#ff6a1f"/>
      <stop offset="100%" stop-color="#b8430f"/>
    </linearGradient>
  </defs>
  <rect width="100" height="100" fill="#06080b" rx="6"/>
  <polygon points="50,8 88,28 88,72 50,92 12,72 12,28"
    fill="url(#plate)" stroke="url(#steel)" stroke-width="2"/>
  <path d="M 50 20 C 32 20, 22 30, 20 44 C 18 60, 18 70, 22 78 L 34 78 C 36 70, 38 60, 40 50 C 40 40, 44 34, 50 32 C 56 34, 60 40, 60 50 C 62 60, 64 70, 66 78 L 78 78 C 82 70, 82 60, 80 44 C 78 30, 68 20, 50 20 Z"
    fill="url(#veil)" stroke="#1a1f2a" stroke-width="0.6"/>
  <rect x="42" y="72" width="16" height="4" fill="#5a6272" stroke="#1a1f2a" stroke-width="0.3"/>
  <circle cx="50" cy="54" r="18" fill="url(#dome)" stroke="#1a1f2a" stroke-width="0.6"/>
  <ellipse cx="44" cy="47" rx="5.5" ry="3.2" fill="#f4f6fa" opacity="0.45"/>
  <path d="M 34 53 Q 50 47, 66 53 L 66 60 Q 50 66, 34 60 Z" fill="url(#visor)"/>
  <path d="M 36 54.6 Q 50 50.4, 64 54.6" fill="none" stroke="#ffd0a8" stroke-width="0.5" opacity="0.75"/>
</svg>
